<?xml version="1.0" encoding="utf-8"?>
<!-- Generator: Adobe Illustrator 22.1.0, SVG Export Plug-In . SVG Version: 6.00 Build 0)  -->
<svg version="1.1" id="Layer_1" xmlns="http://www.w3.org/2000/svg" xmlns:xlink="http://www.w3.org/1999/xlink" x="0px" y="0px"
	 viewBox="0 0 64 64" style="enable-background:new 0 0 64 64;" xml:space="preserve">
<style type="text/css">
	.st0{fill:url(#SVGID_1_);}
	.st1{fill:url(#SVGID_2_);}
</style>
<linearGradient id="SVGID_1_" gradientUnits="userSpaceOnUse" x1="32.0002" y1="55.2892" x2="32.0002" y2="1">
	<stop  offset="0" style="stop-color:#FF721E"/>
	<stop  offset="0.55" style="stop-color:#F1A124"/>
</linearGradient>
<path class="st0" d="M34.9,51.2c1,0.1,2.1,0.3,3,0.7c0.5,0.1,1,0.4,1.2,0.8c0.3,0.4,0.7,0.7,1.2,0.8c1.2,0.5,2.5,0.9,3.9,1.1
	c0.5,0,1,0.1,1.4,0.2c0.5,0.1,1,0.2,1.5,0.3c0.4,0,0.9,0.1,1.3,0.2c0.4,0.1,0.9,0,1.3-0.1c0.2-0.1,0.4-0.2,0.6-0.3
	c-0.4,0-0.8,0-1.2-0.1c-0.5-0.2-0.9-0.5-1.1-0.9l-0.4-0.8c-0.3-0.3-0.5-0.6-0.5-1c0,0,0,0,0-0.1c-0.2-0.3,0-0.7,0.3-0.9
	c0.6-0.1,1.1-0.3,1.6-0.6c0.5-0.2,1-0.2,1.5-0.2c1-0.3,1.9-0.7,2.9-1.1c-0.1-0.1-0.2-0.3-0.1-0.4c0.1-0.5,0.5-0.9,0.9-1.2
	c1.1-0.8,2.1-1.8,2.8-3c0.6-0.4,1.2-0.8,1.9-0.9l3.9-1c-3.2,0.1-6.4-0.2-9.4-0.9c-0.1,0-0.2,0-0.3-0.1c-0.4-0.2-0.5-0.6-0.2-0.9
	c0.4-0.8,1-1.4,1.8-1.9c0.4-0.4,0.8-0.9,1-1.4c0.4-0.9,1.1-1.7,1.8-2.4c0.6-0.2,1-0.6,1.3-1.1c0.6-1,1.5-1.8,2.6-2.3l1.2-0.7
	c-1.1,0.4-2.3,0.6-3.5,0.7c0,0-0.1,0-0.1,0c-0.4,0-0.7-0.4-0.7-0.7c0.2-1.1,0.5-2.2,1-3.3c-0.6-0.8-0.9-1.9-0.8-2.9
	c0.1-1,0.5-1.9,1.2-2.6l2.6-2.7L59,21.3c-1.1,0.3-2.2,0.5-3.3,0.4c-0.9,0-1.8,0-2.6,0.1c-1,0.2-2,0-2.9-0.5c-1,1-2.4,1.7-3.9,1.7
	c-1.2,0.3-2.3,0.6-3.4,1.1c0,0,0,0,0,0c-0.6,0.1-1.2-0.3-1.3-0.9c-0.1-0.6-0.4-1.1-0.8-1.6c-0.3-0.5-0.4-1.1-0.1-1.6
	c1-1.2,1.4-2.7,1.2-4.2l-0.6-3.7c0.2-0.9,0.6-1.9,1.1-2.7c-0.9,0.7-1.7,1.5-2.4,2.4c-0.4,0.3-0.9,0.3-1.3,0
	c-1.3-1.1-2.3-2.3-3.1-3.8c-0.2-0.3-0.6-0.4-1-0.2c-1.8-0.2-3.2-1.5-3.5-3.1L30.9,1L30,4.3c-0.4,0.9-1,1.8-1.8,2.5
	c-0.6,0.8-1.5,1.2-2.6,1.2c-0.8,0.8-1.5,1.7-1.9,2.7c-0.5,1-1.7,1.5-2.9,1.1c-0.6-0.3-1.1-0.7-1.4-1.3c0.1,1,0.2,2,0.4,3
	c0.1,0.7,0.1,1.4-0.2,2.1c-0.1,1.1,0.3,2.2,1.2,2.9c0.3,0.3,0.2,0.8-0.2,1c-0.5,0.3-0.8,0.8-0.7,1.3l-0.1,3.5c0.1,0,0.1,0.1,0.1,0.2
	c0.1,0.2,0,0.5-0.3,0.6c-0.5,0.1-1,0-1.4-0.2c-1.1-0.5-2.4-0.6-3.6-0.3c-0.7,0.1-1.4-0.1-1.9-0.6c-0.7-0.1-1.4-0.3-1.9-0.8l0.1,0.6
	c-1.7,0.5-3.5,0.5-5.2,0.1l-4.3-2.1l3.1,3.2c1,0.7,1.9,1.6,2.6,2.6c-0.1,0.7,0.1,1.3,0.4,2c0.1,0.6-0.1,1.2-0.6,1.7
	c0.3,0.8,0.8,1.6,1.6,2.1c0.1,0.1,0.2,0.2,0.2,0.3c0.3,0.6,0,1.3-0.7,1.6l-1.1,0.1c0.8,1.2,1.9,2.3,3.2,3.2c0.4,0.5,1,0.9,1.7,1.2
	c0.8,0.6,1,1.6,0.5,2.4c-1.2,1.6-3.1,2.6-5.3,2.7c-1.9-0.7-4-0.8-5.9-0.4c1.5,0.1,3,0.5,4.3,1.2c0.5,0.1,1,0.3,1.4,0.6
	c0.4,0.3,1,0.4,1.5,0.3c0.5-0.1,1.1,0.2,1.3,0.6l1.8,1.6c0.2,0.4,0.3,0.8,0.3,1.2c1.3,0.3,2.6,0.4,4,0.4l1.6,0.9
	c0.9,0.5,2,0.6,2.9,0.3c0,0,0,0,0.1,0c0.5,0,0.9,0.3,1,0.8l-0.1,0.5c1.3,0.4,2.7,0.3,3.9-0.2c1.9,0,3.8-0.2,5.7-0.5l3.1-0.8
	L34.9,51.2"/>
<linearGradient id="SVGID_2_" gradientUnits="userSpaceOnUse" x1="32.1067" y1="2.6631" x2="32.1067" y2="63">
	<stop  offset="0.665" style="stop-color:#F15A24"/>
	<stop  offset="1" style="stop-color:#F10024"/>
</linearGradient>
<path class="st1" d="M32.7,17.6l0.2,0.3l0.3,0.5l0.2,0l1.4-0.2l0.6,0.1l0.4,0.1l0.3-0.1l0.1-0.4l0,0.4l0.1,0.2l0.4,0.2l-0.4-0.1
	L36,18.3l-0.3,0.1l-0.6-0.2l-1.2,0.1l-0.7,0.2l0,0.5l-0.1-0.5L33,18.2L32.7,17.6l-2.1,1.3l0.3,3l0.7-0.2l0.8-0.2l0.6-0.2l0.5-0.9
	l-0.2-0.7l0.1-0.5v0.6l0.2,0.6l0.8,0.1l0.3-0.4l-0.1-0.4l0.2,0.4l0.8,0.1L34.6,20l-0.3,0.4l0.3,0.8l-0.5-0.8l-0.8,0l-0.2,0.4
	L33,21.3l0.6,0.5l0.6-0.1l0.6,0.1l-0.3,0V22l0.2,0.1L34.4,22v-0.2l-0.1-0.1l-0.5,0.1v0.2l0.2,0.4l0.6,0.2L34,22.4l-0.1,0.1l0-0.3
	l-0.3-0.4l-0.3-0.3l-0.2-0.2l-0.6,0.2l0,0.4l0.2,0.5l-0.2-0.2l-0.2-0.6L30.8,22l0.2,1.9l0.6-0.2l0.6-0.1l0.4-0.3l-0.1-0.3l-0.3-0.4
	l0.4,0.3l0.1,0.3h0.4l0.1-0.1l0.2-0.3L33.4,23l-0.1,0.2v0.3l-0.1-0.2l-0.4,0l-0.4,0.4l0.3,0.2l0.4-0.2l-0.2,0.1l-0.2,0.2l0.1,0.4
	l-0.2-0.5l-0.4-0.2l-0.7,0.1L31,23.9l0.4,4.4l2.1-1.7l1.9-3.9l1.6-2.7l1.7-3.3l-0.2-0.1l-0.8-0.2l-1.2,0.2l0.9-0.2L37,16.2l-0.7-0.3
	l0.8,0.2l0.2-0.7l-0.1,0.7l0.4,0.2l0.6,0.1l0.6,0.2l1.5-3.1l1-2.3l-1.2,3.3l-1.2,2.2l-1,2l-0.8,1.4l1.6,0.3l0.4,0.1l0.4-0.4l0.5-0.7
	L39.8,20l-0.6,0.6v0.3v1v-0.6L39,20.6l-1.2-0.2l-0.7-0.1l-0.2,0.4l-1.6,2.8L35,24.1l0.3,0.1l0.7,0.2l0.7,0.3l0.4-0.1l0.5,0.1h-0.6
	l-0.3,0.1v0.3l0,0.6l-0.1-0.4v-0.4l-0.5-0.3l-0.8-0.2l-0.4-0.2l-1,2.1l0.4,0.2l0.6,0.3l0.3-0.2l0.2-0.9l-0.1,0.8l0.9,0l-0.4,0.1
	h-0.5l-0.1,0.2l-0.3,0.1l-0.5-0.2l-0.5-0.2l-0.1,0.3l-2.4,2l0.8,5.4l1.5-0.9l2-1.8l0.6-1.4l-0.3-0.2l-0.5-0.3h-0.4l-0.2,0.6
	l-0.3,0.3L34,30.6l0.7-0.5l0.3-0.7v-0.2l-0.3-0.6l-0.5-0.3l0.7,0.3l0.3,0.7l0.9,0.2l0.5,0.5l0.5-0.4l0.3-0.6l0.4-1.4l0.6-1l-0.2-0.2
	l-1-0.4l-0.5,0.4l0.3-0.5v-0.5l0.1,0.4l0.5,0.1l0.7,0.4l0.7-0.9l0.4-0.8l0.5-0.6l0.5-1.3l-0.3,1.2l1,0.2L40.3,24l-0.5,0.3l-0.5,1.1
	l-0.7,0.8L38.3,27l-0.5,0.6l-0.4,1.6l1.5,0.5l0.3-0.1l0.7-0.1l-0.4,0.1L39,29.7v0.8l0.1,0.2l-0.2-0.2v-0.7l-0.1-0.2l-1.4-0.4
	l-0.9,1.2l-0.5,1l0.5,0.2l1.2-0.5l-1,0.5l0.7,0.5l0.7,0.1h-0.6l-0.7-0.3l-0.9-0.4L34.4,33l1.2,0.9l-1.4-0.8l-2,1.2l0.7,4.4l1.5-1.1
	l1.2-0.5l0.8-1L36,35.6l-0.7-0.2l-1,0.3l0.9-0.4L35,34.4l0.4,0.9l0.7,0.2l0.6,0.5l0.6-0.5l0.4-0.8l-0.7-0.4l-0.6-0.3l1.5,0.6
	l0.6-0.4L38.2,34l-0.6-0.5L37,33l0.4,0.2l0.5,0.3l0.4,0.4l0.5,0.1l0.8-0.6l-0.1-0.7l0.1-1l-0.4-0.5l0.1-0.6l0,0.5l0.4,0.4l0.8-0.3
	l-0.7,0.4l-0.1,1l0.1,0.7l0.3-0.1l0.3-0.5l0.6-0.6l-0.8,1.1l0.3,0.3L40,33.5l-0.5,0.2l-0.6,0.5l0.1,0.2l-0.5-0.3L38,34.4l-0.5,0.8
	h0.5l0.9,0.2l-0.8-0.1l-0.5,0.1l0.4,0.3l-0.8-0.4L36.9,36l0.1,0.2l0.7,0.3L37,36.2L36.7,36l-0.8,1.1l0.5,0.7l-0.6-0.6l-1,0.4
	l-1.8,1.3l0.5,2.6l1.5-0.5l1-0.5l0.3-0.7L36,39.1l-0.4,0l0.3-0.2l0.2-0.7L35.9,39l0.2,0.2l0.3,0.5l-0.2,0.7l0.7,0.2l0.1,0.3l0.5,0.5
	L37,41.1l-0.5,0.7l0.4-0.8l0-0.2l-0.8-0.3L35.2,41l0.1,0.8l0.1,0.6L35.1,41h-0.2l-1.3,0.6l0.4,2.2l1.8-0.5l0.3-1.3v1l0.1,0.3
	l0.7,0.8l-0.8-0.5L35,43.7L34,44.1l0.9,6l4.5-9L39,39.8l0.1-0.5v0.5l0.6,1l0.9-1.3l-0.6-1.5l-0.5-1.7l-0.4-0.1l-0.3,0.1l-0.5-0.4
	l0.5,0.3l0.4-0.1l0.4,0.1l0.4-0.6l0-0.4l-0.2-0.4l0.2-0.5l-0.2,0.4l0.2,0.3l0.5-0.5l0.1-0.3v0.3L40,35.1L40,35.5l0.4,0.1l1.1,0.1
	h-0.7L40.7,36l-0.3,0.4l0.2-0.4v-0.3l-0.7-0.1l-0.4,0.6l0.3,1.1l0.8,1.9l2-2.6l-1-2.6l0.2-2.6l1-3.2L42.5,28l-0.9-0.2l-0.2,0.5
	l-0.5,0.8l0.6-1.3l-0.5-0.3l-1.1-0.3l0.9,0.1l0.2-1.2l-0.1,1l0.4,0.4l0.8,0.2l0.9,0.4l0.6-1.8l-0.6-0.7l-0.7-0.5l0.8,0.4l0.6,0.6
	l0.9-0.9l1.5-1.4l-1.4,1.6l-1.3,2.4L43,29h1.4l-0.8,0.3L43,29.1l-1,2.7l-0.1,2.6l0.9,2.1l4.6-4.6l-0.4-3.1l1.3-3.5l1.8-3.3l-1,2
	l-1.3,2.8L47,29.4l0.4,2.3l4.2-3.7L51.2,27l0.1-1.6l0.5-1.2l0.3-1.1l0.2-0.3l0.6-0.5L52.3,23l-0.4,1.2l-0.5,1.5v1.4l0.4,0.7l2.6-2.2
	L54,24.9l0.2-1.9l0.6-0.6l-0.5,0.8l-0.1,1.6l0.4,0.7l5.6-4.1l-5.7,4.5l2.4,0.5l0.8-0.2l0.6-0.7l-0.1,0.4l-0.6,0.6h-0.6l-1.9-0.2
	L54.3,26l-0.6,0.5l0.1,0.2l0.9,0.1l-0.9-0.1l-0.2-0.1l-3.2,2.9l2.2,0.3l2.8-0.4l1.5-0.7l1.2-0.3l0.5-0.3l-0.1-0.3l-0.2-0.3L58,27.1
	l0.2,0.2l0.2,0.4l0.2,0.3H59L58.7,28l-0.1,0.2l-0.9,0.3l0.1,0.2L58,29l0.2,0.3L57.9,29l-0.1-0.3l-0.2-0.2l-0.8,0.1l-1.5,0.7
	l-1.1,0.2l-2.4,0.2l-1.7-0.2l-2.2,2l1.8,0.4l0.3-0.4l0.1-0.5v0.5L50,32l0.7,0.3l1.6,0.4l-1.7-0.2l-0.7-0.3l-1.2-0.2l-0.8-0.3
	l-4.2,4.3l2.7,0.1l6-1.1l2.7-0.7l6.3-2.7L55,34.5l0.4,1.2l-0.6-1.1l-2.3,0.6l0.1,0.6l-0.1,1v-1.1l-0.2-0.5l-2.1,0.5l0,0.4l-0.1,0.5
	l0.1,0.6l-0.2-0.6l0.1-0.6l-0.1-0.4l-4.1,0.5l-2.6-0.1l-2.3,2.9l-1.4,2l2.2,0.2l1.7-0.3l2.1-0.6l1.9-0.4l1.9-0.6l-0.1-0.7l-0.3-0.7
	l0.4,0.7l0.2,0.7l0.8-0.1l1.3-0.3l0.9-0.4L54,38l0.7-0.6l0.2-0.9l-0.1,0.8l0.7-0.1l-0.7,0.2L54,38.1l-1,0.4l-0.9,0.4l0.6,0.9
	l0.7-0.1l-0.7,0.2l-0.1,0.7l0.1-0.7L52,38.9l-1.2,0.3l0.1,1v0.7l-0.2-1.2l0-0.4l-1.1,0.2l-1,0.4l0.6,0.9l0.5-0.2h0.6l-0.6,0
	l-0.6,0.2l-0.1,0.5l-0.3,0.4l0.2-0.4v-0.5l-0.6-0.9l-2.5,0.5l-2.4,0.7L42,41.3l-2.2-0.1l-1.1,2.2l0.8,0.4l0.6,0.3l0.6-0.3l0.4-0.8
	L41,43.9l0.5,0.2l0.6,0.3l-0.6-0.1l-0.7-0.3l-0.7,0.3l0.1,1l-0.3,0.5l-0.5,0.2l-0.3,0.2l0.4-0.4l-0.4-0.2l-0.7,0.2l0.7-0.2l0.6,0.1
	l0.4-0.4l0-0.4L40,44.2l-0.7-0.3l-0.7-0.3l-2.2,4.5l-1.1,2.3c0,0,0,0.1,0,0.1c0,0,0,0,0.1,0c1.5-1.1,3.3-2.1,5.1-2.8l2.1-0.5
	c0-0.4,0-0.8,0-1.2c0-0.3-0.1-0.5-0.2-0.8c0-0.4,0-0.7,0-1.1c0,0.4,0,0.7,0,1.1c0.1,0.3,0.2,0.6,0.2,0.9c0,0.4,0.1,0.7,0,1.1
	l2.2-0.6l0.2-1.6l0.5-1.1l0.1-0.9l0,0.9l-0.5,1.2l-0.2,1.5c1.4-0.4,2.8-0.7,4.3-1c0-0.5,0.1-0.9,0.2-1.4l-0.5-0.2h-0.7l-0.2-0.1
	l0.3,0l0.6,0l0.6,0.2l0.4-0.9c-0.2-0.1-0.5-0.2-0.7-0.3c-0.3-0.1-0.5-0.2-0.7-0.4c0.2,0.2,0.5,0.3,0.7,0.4c0.3,0.1,0.5,0.2,0.7,0.3
	l0.7-0.7l-0.3-0.8L51,42l0.9-0.4l0.8,0.7l-0.8-0.6L51.3,42l0.6,0.4L51.2,42L51,42.1l-0.2,0.3l0.3,0.2l0.4,0.2l0.4,0.2l-0.7-0.4
	l-0.4-0.2l-0.5,0.5l-0.1,0.4l0.4,0.1l0.8,0.1l0.9,0.1l-0.9,0l-0.8-0.1l-0.4-0.1c-0.3,0.6-0.4,1.3-0.5,1.9l2.6-0.5
	c0.5-0.1,1-0.2,1.5-0.3c2-0.5,4-0.8,6.1-1.1c-1.5,0.3-2.9,0.6-4.4,0.9c0.2,0.3,0.4,0.6,0.5,0.9l0.8-0.1l-0.9,0.2l-0.2,0.5l0.1-0.5
	c-0.1-0.2-0.1-0.4-0.3-0.5l-0.3,0.1l0.3-0.1l-0.2-0.3l-1.6,0.3L51.9,45l0.3,0.5l0.5,0.5l0.5,0.5l1.6,0.2c0.1,0,0.2-0.1,0.2-0.1
	l0.5-0.5c-0.1,0.2-0.3,0.4-0.5,0.6l0.2,0.2L55,46.7c-0.1,0-0.1,0-0.1,0.1c0,0.1,0,0.2,0,0.3c-0.1-0.1-0.1-0.2-0.1-0.4l-1.6-0.2
	L53.2,47l0.1,0.3L53.1,47l0-0.5l-0.2-0.3l-1-0.9L51.8,45l-2.9,0.6l0.4,0.7l1,0.7c0.2,0.1,0.5,0.1,0.7,0.2c0.2,0,0.3,0,0.5,0
	c0.2,0,0.3,0,0.5,0.1c-0.2,0-0.5,0-0.7,0c0.2,0.2,0.4,0.3,0.6,0.4c0.3,0,0.5,0.1,0.8,0.3c-0.2-0.1-0.5-0.2-0.8-0.2
	c-0.1,0-0.2-0.1-0.3-0.1l-0.1,0.1l0.2,0.2l-0.2-0.2l-0.2,0.1l0.2-0.1l0.1-0.2l-0.4-0.2c-0.3,0-0.6,0-0.9-0.1l-0.1,0.2l0.1,0.3
	l-0.2-0.2h-0.3l0.3-0.1l0.1-0.2l-0.4-0.3l-0.6-0.4c-0.2,0.1-0.3,0.1-0.5,0.3c-0.1,0-0.2,0-0.3,0L48.3,47l0.1-0.3
	c-0.1,0-0.2-0.1-0.2-0.1c0.2,0.1,0.4,0.1,0.6,0.1c0.1-0.1,0.3-0.2,0.4-0.3l-0.4-0.7c-1.2,0.2-2.4,0.5-3.6,0.9c0.3,0.4,0.8,0.8,1.3,1
	l1.9,0.8c0.3,0.1,0.7,0.2,1,0.3c0.5,0.2,1,0.3,1.5,0.4l1.9,0.2l-2-0.1l-0.3,0.7l0.2-0.7l-1.1-0.3l-0.4,0.4l0.2-0.5
	c-0.4-0.1-0.7-0.2-1.1-0.3l-0.3,0.9l0.1,0.5l-0.2-0.5l-0.7,0.1l0.7-0.1l0.2-0.9l-1.9-0.8c-0.6-0.2-1.1-0.6-1.5-1.1L43.7,47l-2.4,0.6
	c0.5,0.8,1.2,1.4,2.1,1.8c0.5,0.2,1,0.5,1.4,0.7l1.1,0.4c0.3,0.1,0.5,0.2,0.8,0.4c-0.3-0.1-0.5-0.2-0.8-0.3l-1.2-0.4
	c-0.5-0.3-1-0.5-1.5-0.7c-0.9-0.4-1.7-1-2.2-1.8c-2.1,0.7-4,1.8-5.6,3.1c0,0,0,0.1,0,0.1c0,0,0,0,0.1,0c0.9-0.2,1.8-0.3,2.7-0.3
	c1.3,0.2,2.5,0.5,3.5,1.1l1.7,0.8c1.4,0.6,2.8,1.3,4.1,2l1,0.4c-0.4-0.1-0.8-0.2-1.1-0.4c-1.9-1-3.8-1.9-5.7-2.7
	c-1.1-0.5-2.3-0.9-3.6-1.1c-1.1,0.1-2.3,0.2-3.3,0.5C34.2,52.8,31.1,63,31.1,63l-1-0.4l3.8-11.5l-0.4,0.1L28.4,52l4.7-0.9l-2.2-0.3
	l-2,0.2l-3.4,0.6l-3.1,0.7l3.3-0.9l4.8-0.7l2.7,0.3l0.4-0.1l-2.5-1.5l-5.3-1.3L25,48.4l-2.3,1.1l-2,0.8l-2.2,0.3l2.5-0.6l3.1-1.4
	l1.4-0.9l-5.3-0.8l-0.7,0.7l-1.8,1.2l-3.1,0.7l-2.1,0.1l1.8-0.2l3.4-0.9l2-1.7l-5.6-0.3l-0.4,0.9l-0.8,0.3l-1.1,0.1l1.6-0.4l0.6-0.9
	h-1.4l-2.1-0.4l-2.9-0.8l4.4,0.9L11,44.2l1.2,2.1l5.2,0.2l-0.5-1.4l-2.5-2l2.5,1.7l1-1.4L17,44.9l0.6,1.6l3.3,0.3l0.4-2l-0.2,2
	l2.7,0.4l6.7,1.5l3.2,1.6L28,43l-1.5,0.3L23.5,43l-2.7-0.5l-1.7,0l1.5-0.2l0.8-1.3l-0.5,0.8l-0.1,0.5l2,0.4l3.9,0.3l1.1-0.3l-3.5-3
	h-2.6l-2.9-0.4l-0.7,1l0.5,0.9l-0.9-0.8h-1l1-0.2l0.6-0.9l-2.8-0.8l-6.7-2.3l5.1,1.7l2.4,0.6l5.1,1l2.6,0l-5.7-4.9l-2.7,0.4
	l-3.1-0.7l3.8,0.5l1.8-0.4l-3.1-2.4l-1.6,0.3H11l-3.8-0.8l4.9,0.7l2.5-0.4l-4.7-3.9l-7-5l7.6,5l4.3,3.6l0.3-1.1l-1.4-3.6l-1.8-1.9
	l2.3,2.1l1.1,3.3l-0.2,1.4l5,4l0.3-2.2l-0.6-2.7L18.5,28l-2.8-3l3.1,3l0.3,0.7l0.6-0.4l0.5-1.2l0.9-0.6l-0.6,0.6L20,28.3l1-0.3
	l1-1.2l-0.8,1.3l0.8,0.5l-1-0.3l-0.7,0.2l-1.1,0.4l0.9,2.4l1.3-0.4l0.8-0.4h0.7l0.6-0.2l-0.5,0.3l-0.7,0l-0.7,0.4l0.2,0.5L22,32
	l0.3,0.4l-0.3-0.3l-0.4-0.6l-0.2-0.5l-1.2,0.4l0.4,2.7l-0.4,1.7l3,2.6l0.7-1.4l0.5-2.3l0.4-0.9l-0.4-1l-1.3-0.3l1.3,0.2l0.7-1.2
	l-0.6,1.3l1.2,2.2L25,33.9l-0.5,1.3l1.8,0.7l-1.8-0.5l-0.2,0.8l-0.5,1.4l-0.5,0.8l2.2,1.9l1.8-2.9l-0.3-1.4l0.4,1.4l1.9,0.2l-2-0.1
	l-1.8,2.9l2,1.7l0.9-1.4l-0.4-0.4l-0.4-1l0.4,0.8l0.7,0.6l0.5,0.2l1,0.5l-1-0.4l-0.6-0.3l-1,1.4l1.7,1.7l4.6,6h0.2l-0.7-5.5
	l-0.6-0.1l-0.8-0.4l0.5,0.2l0.5,0.2l0.4,0l-0.1-0.8l-1.7-9.2l-3.2-2.1L27,30l-1.7-1.9l-1.2,0.5l-1.4,0.8l0.9-0.8l1.6-0.8l-0.9-1.3
	l-1.7-1.6l-1.4,0.3l1.2-0.5l-1.3-3.4l0.6,1.4l1.1,2l0.7-0.6l0.3-1.9l-0.1,1.9L23,24.8l0.7,0.7l1.6,1.7l0.5-0.4l0.4-0.2V26l0.1,0.5
	l1.5,0.2l-1.4-0.1l-0.3,0.2l-0.8,0.6l0.3,0.3l0.8,1l0.5-0.5l0.5-0.3h0.4l0.8-0.1l0.2-0.4v0.3l0.9,0.3l-1-0.2L28.3,28l-0.9,0.1
	l-0.5,0.4l-0.4,0.4l0.8,1.1l0.6-0.5l0.8-0.2l-0.4-1l0.7,1.1l1.2,0.4l-1-0.3h-0.7l-0.6,0.2l-0.4,0.4l1,1.4l3.3,2.4l-0.9-6.3l-3.6-3.5
	l-0.2,0.2l-1,0.4l-0.2,0.6l0.6,0.5l-0.7-0.4l-0.9,0.4l0.9-0.4l0.2-0.6l0.7-0.2l0.5-0.3l-0.4-0.6l-1.5-2.2l-0.7,0.3l-0.5,0.4v0.3
	L24,22l-0.2-0.1h-0.5l0.3-0.1l0.4,0.1l0.5-0.4l0.8-0.3l-0.9-1.2l-0.7,0.2l-0.6,0.3l-0.4,0.4l-0.1,0.3v-0.3l0.1-0.3l0.4-0.3l-0.4-0.7
	l-0.4-0.1L22,19.2l0.5,0.2l0.3,0.1l-0.2-0.3l-0.3-0.3l0.3,0.2l0.3,0.4l0.4-0.4l-0.1-0.4l0.1,0.4l-0.4,0.5l0.4,0.7l0.5-0.2l0.7-0.1
	l-1.1-1.6l-0.2-0.3l-0.3,0.2l0.1,0.5l-0.1-0.5l-0.3,0l-0.4,0.1l0.7-0.2l0.3-0.3l-2.9-5.8l2.7,4.7l0.2-0.3l-0.2-0.6l-0.1-0.5l0.7-0.8
	l-0.5,0.9l0.2,0.8l0.6-0.1l0.7-0.5l0.7-0.1l-0.8,0.3l-0.6,0.4l-0.5,0.1l-0.2,0.3l1.8,3.1l0.7-0.7l0.4-0.2l0.1-0.8v0.8l0.4,0.2H27
	l0.4-0.6l-0.2,0.4l0.3-0.1l-0.5,0.2v0.2l0.1,0.3L27,19.6l-0.2,0.3l-0.4,0.3l0.2-0.3l0.3-0.4l-0.1-0.2h-0.5L26,19.1l-0.6,0.3L24.8,20
	l1.1,1.5l0.7-0.6l0.5-0.3v-0.4l0.3-0.5l-0.2,0.5v0.4l0.4,0.4l1.1-0.2l-1.1,0.2l0.1,0.8l-0.2-0.8l-0.4-0.3l-0.6,0.4L26,21.6l2.4,3.3
	l2.5,2.2l-0.2-2.7l-0.5-0.1l-0.7,0.1l0.5-0.1l0.3,0l0.4,0l-0.2-2.7l-0.6-0.1l-0.6-0.1l-0.4,0l0.6-0.1l0.9,0.2l-0.2-1.9l-1.6-0.3
	l-0.9-0.6l-0.9-0.9L26,17.2l-0.7-0.1l1,0.1l0.9,0.7l1.1,1l2,0.6l-0.1-2.9l-1.9-1.1l-1.4-1.8l-1.2-0.4h-1L23,12.5l1.6,0.6h0.9
	l1.2,0.3l-0.5-2.3l-1.7-0.8l1.7,0.6l-0.4-2.5l0.6,2.7l0.5,2.2l0.2,0.5l1,1.3l1.9,1.3V13V6.5l0.6-3.8l-0.5,4.5l0.1,3l1.2-0.6l0.8-1
	l-0.2-1l0.4,0.8h1l-1,0.1l-1.3,1.4l-1,0.3v3.7l2.5-1.8l1.6-2.5l0.6-1.4L35,9.1l-1.1,1.8l-1.2,1.8l-2.3,1.4l0.1,4.7l3.1-2l1.8-2.4
	l0.7-0.9l0.5-1.2l0.6-0.7l-0.6,1.1l-0.4,1.1l1.4,0.6l0.9-0.3l-0.8,0.4l-0.1,0.5l-0.1-0.5l-1.3-0.6l-0.7,0.7L33.6,17L32.7,17.6z"/>
</svg>
